# xmcd CD database file
#
# Track frame offsets:
#	150
#	15624
#	29360
#	43798
#	61364
#	75488
#	87678
#	104514
#	123678
#	137803
#	153715
#	166117
#	185422
#	197339
#	212451
#	226290
#	236052
#	255476
#	270064
#
# Disc length: 3820 seconds
#
# Revision: 0
# Processed by: cddbd v1.5.2PL0 Copyright (c) Steve Scherf et al.
# Submitted via: CDex 1.51
#
DISCID=fb0eea13
DTITLE=Various Artist - Goue Mans Stemme
DYEAR=1900
DGENRE=Country
TTITLE0=Please Release Me - Engelbert Humperdinck
TTITLE1=Green Green Grass Of Home - Tom Jones
TTITLE2=I Don't Believe In If Anymore - Roger Whittaker
TTITLE3=Miss You Nights - Cliff Richard
TTITLE4=When I Fall In Love - Nat King Cole
TTITLE5=Make Me An Island - Joe Dolan
TTITLE6=My Friend The Wind - Demis Roussos
TTITLE7=No More Boleros - Kurt Darren
TTITLE8=Amanda - Don Williams
TTITLE9=I Did What I Did For Maria (Version 1998) - Tony Christie
TTITLE10=Words - F R David
TTITLE11=She Believes In Me - Kenny Rogers
TTITLE12=Arms Of Mary - Nicholis Louw
TTITLE13=Buy Me A Rose - J J Stephens
TTITLE14=Million Drums - Dennis East
TTITLE15=Dis Reën Dis Wind Dis Water - Danie Niehaus
TTITLE16=Hoor Jy My Stem Oor Die See - Gregoria
TTITLE17=La Paloma - Manuel Escorcio
TTITLE18=If Tomorrow Never Comes - Paul Buckby
EXTD=
EXTT0=
EXTT1=
EXTT2=
EXTT3=
EXTT4=
EXTT5=
EXTT6=
EXTT7=
EXTT8=
EXTT9=
EXTT10=
EXTT11=
EXTT12=
EXTT13=
EXTT14=
EXTT15=
EXTT16=
EXTT17=
EXTT18=
PLAYORDER=
